<svg xmlns="http://www.w3.org/2000/svg" viewBox="0 0 24 24">
  <g fill="none">
    <path fill-rule="evenodd" fill="#000" clip-rule="evenodd" d="M2 12C2 6.477 6.477 2 12 2s10 4.477 10 10-4.477 10-10 10S2 17.523 2 12zM12 0C5.373 0 0 5.373 0 12s5.373 12 12 12 12-5.373 12-12S18.627 0 12 0zM8.465 8.465a1 1 0 0 0 0 1.414L10.585 12l-2.12 2.122a1 1 0 1 0 1.414 1.414L12 13.414l2.122 2.122a1 1 0 1 0 1.414-1.414L13.414 12l2.122-2.121a1 1 0 1 0-1.415-1.415L12 10.586 9.879 8.465a1 1 0 0 0-1.414 0z"></path>
  </g>
</svg>